# Blender 4.3.2
# www.blender.org
mtllib circularWindow.mtl
o Grid.002
v -0.000000 0.078275 -0.000000
v 0.000000 1.078275 0.000000
v 0.245175 1.078275 0.000000
v 0.245175 1.078275 -1.000000
v -0.000000 0.081358 0.078459
v -0.000000 0.090587 0.156434
v -0.000000 0.105905 0.233445
v -0.000000 0.127218 0.309017
v -0.000000 0.154395 0.382683
v -0.000000 0.187268 0.453990
v -0.000000 0.225635 0.522498
v -0.000000 0.269258 0.587785
v -0.000000 0.317869 0.649448
v -0.000000 0.371168 0.707107
v -0.000000 0.428827 0.760406
v -0.000000 0.490490 0.809017
v -0.000000 0.555776 0.852640
v -0.000000 0.624284 0.891007
v -0.000000 0.695592 0.923880
v -0.000000 0.769258 0.951057
v -0.000000 0.844830 0.972370
v -0.000000 0.921840 0.987688
v -0.000000 0.999816 0.996917
v 0.000000 0.999816 -0.996917
v 0.000000 0.921841 -0.987688
v 0.000000 0.844830 -0.972370
v 0.000000 0.769258 -0.951057
v 0.000000 0.695592 -0.923880
v 0.000000 0.624285 -0.891007
v 0.000000 0.555776 -0.852640
v 0.000000 0.490490 -0.809017
v 0.000000 0.428827 -0.760406
v 0.000000 0.371168 -0.707107
v 0.000000 0.317869 -0.649448
v 0.000000 0.269258 -0.587785
v 0.000000 0.225635 -0.522499
v -0.000000 0.187268 -0.453991
v -0.000000 0.154395 -0.382683
v -0.000000 0.127218 -0.309017
v -0.000000 0.105905 -0.233445
v -0.000000 0.090587 -0.156435
v -0.000000 0.081358 -0.078459
v -0.000000 1.156734 0.996917
v -0.000000 1.234709 0.987688
v -0.000000 1.311720 0.972370
v -0.000000 1.387292 0.951057
v -0.000000 1.460958 0.923880
v -0.000000 1.532265 0.891007
v -0.000000 1.600773 0.852640
v -0.000000 1.666060 0.809017
v -0.000000 1.727723 0.760406
v -0.000000 1.785382 0.707107
v -0.000000 1.838681 0.649448
v -0.000000 1.887292 0.587785
v -0.000000 1.930915 0.522499
v 0.000000 1.969281 0.453991
v 0.000000 2.002154 0.382683
v 0.000000 2.029331 0.309017
v 0.000000 2.050645 0.233445
v 0.000000 2.065963 0.156435
v 0.000000 2.075192 0.078459
v 0.000000 2.075192 -0.078459
v 0.000000 2.065963 -0.156434
v 0.000000 2.050645 -0.233445
v 0.000000 2.029331 -0.309017
v 0.000000 2.002154 -0.382683
v 0.000000 1.969281 -0.453990
v 0.000000 1.930915 -0.522498
v 0.000000 1.887292 -0.587785
v 0.000000 1.838681 -0.649448
v 0.000000 1.785382 -0.707107
v 0.000000 1.727723 -0.760406
v 0.000000 1.666060 -0.809017
v 0.000000 1.600774 -0.852640
v 0.000000 1.532265 -0.891007
v 0.000000 1.460958 -0.923880
v 0.000000 1.387292 -0.951057
v 0.000000 1.311720 -0.972370
v 0.000000 1.234710 -0.987688
v 0.000000 1.156734 -0.996917
v 0.245175 0.999816 0.996917
v 0.245175 0.921840 0.987688
v 0.245175 0.844830 0.972370
v 0.245175 0.769258 0.951057
v 0.245175 0.695592 0.923880
v 0.245175 0.624284 0.891007
v 0.245175 0.555776 0.852640
v 0.245175 0.490490 0.809017
v 0.245175 0.428827 0.760406
v 0.245175 0.371168 0.707107
v 0.245175 0.317869 0.649448
v 0.245175 0.269258 0.587785
v 0.245175 0.225635 0.522498
v 0.245175 0.187268 0.453990
v 0.245175 0.154395 0.382683
v 0.245175 0.127218 0.309017
v 0.245175 0.105905 0.233445
v 0.245175 0.090587 0.156434
v 0.245175 0.081358 0.078459
v 0.245175 0.081358 -0.078459
v 0.245175 0.090587 -0.156434
v 0.245175 0.105905 -0.233445
v 0.245175 0.127218 -0.309017
v 0.245175 0.154395 -0.382683
v 0.245175 0.187268 -0.453990
v 0.245175 0.225635 -0.522499
v 0.245175 0.269258 -0.587785
v 0.245175 0.317869 -0.649448
v 0.245175 0.371168 -0.707107
v 0.245175 0.428827 -0.760406
v 0.245175 0.490490 -0.809017
v 0.245175 0.555776 -0.852640
v 0.245175 0.624285 -0.891007
v 0.245175 0.695592 -0.923880
v 0.245175 0.769258 -0.951057
v 0.245175 0.844830 -0.972370
v 0.245175 0.921841 -0.987688
v 0.245175 0.999816 -0.996917
v 0.245175 2.075192 0.078459
v 0.245175 2.065963 0.156435
v 0.245175 2.050645 0.233445
v 0.245175 2.029331 0.309017
v 0.245175 2.002154 0.382683
v 0.245175 1.969281 0.453991
v 0.245175 1.930915 0.522499
v 0.245175 1.887292 0.587785
v 0.245175 1.838681 0.649448
v 0.245175 1.785382 0.707107
v 0.245175 1.727723 0.760406
v 0.245175 1.666060 0.809017
v 0.245175 1.600773 0.852640
v 0.245175 1.532265 0.891007
v 0.245175 1.460958 0.923880
v 0.245175 1.387292 0.951057
v 0.245175 1.311720 0.972370
v 0.245175 1.234709 0.987688
v 0.245175 1.156734 0.996917
v 0.245175 1.156734 -0.996917
v 0.245175 1.234710 -0.987688
v 0.245175 1.311720 -0.972370
v 0.245175 1.387292 -0.951057
v 0.245175 1.460958 -0.923880
v 0.245175 1.532265 -0.891007
v 0.245175 1.600774 -0.852640
v 0.245175 1.666060 -0.809017
v 0.245175 1.727723 -0.760406
v 0.245175 1.785382 -0.707107
v 0.245175 1.838681 -0.649448
v 0.245175 1.887292 -0.587785
v 0.245175 1.930915 -0.522498
v 0.245175 1.969281 -0.453990
v 0.245175 2.002154 -0.382683
v 0.245175 2.029331 -0.309017
v 0.245175 2.050645 -0.233445
v 0.245175 2.065963 -0.156434
v 0.245175 2.075192 -0.078459
v -0.000000 1.807065 0.683650
v 0.000000 1.578275 0.000000
v -0.000000 0.578275 -0.000000
v 0.000000 1.458478 -0.324724
v -0.000000 1.078275 0.500000
v 0.000000 1.078275 -0.500000
v -0.000000 1.442670 0.341825
v 0.000000 0.698072 -0.324724
v -0.000000 0.724722 0.353553
v 0.245175 1.078275 0.500000
v 0.245175 0.724722 -0.353553
v 0.245175 0.578275 -0.000000
v 0.245175 1.578275 0.000000
v 0.245175 0.724722 0.353553
v 0.245175 1.458478 -0.324724
v 0.245175 1.458478 0.324724
v 0.245175 1.078275 -0.500000
v -0.000000 1.078275 1.000000
v -0.000000 1.321214 0.561201
v -0.000000 0.842580 0.569033
v -0.000000 0.509240 0.235702
v -0.000000 0.491474 -0.216479
v 0.000000 1.078275 -1.000000
v 0.000000 0.824813 -0.549828
v 0.000000 1.331734 -0.549833
v 0.000000 1.654536 0.227878
v 0.000000 2.078275 0.000000
v 0.000000 1.665085 -0.216502
v 0.245175 1.331757 0.549819
v 0.245175 1.665045 0.216499
v 0.245175 2.078275 0.000000
v 0.245175 1.665056 -0.216429
v 0.245175 1.331734 -0.549814
v 0.245175 0.842590 -0.569031
v 0.245175 0.509200 -0.235681
v 0.245175 0.078275 -0.000000
v 0.245175 0.509222 0.235761
v 0.245175 1.078275 1.000000
v 0.245175 0.842606 0.569097
v 0.245175 2.010818 0.359201
v 0.245175 2.015948 -0.345295
v 0.000000 1.396346 -0.736856
v -0.000000 0.769086 0.746457
v 0.245175 1.432011 0.720413
v 0.245175 0.769091 -0.746455
v 0.245175 1.396346 -0.736847
v 0.245175 1.837932 0.287850
v 0.245175 1.840502 -0.280862
v 0.245175 0.331809 0.309222
v 0.245175 0.331798 -0.309182
v 0.245175 0.769099 0.746488
v 0.000000 1.828346 0.305280
v -0.000000 1.391086 0.742540
v 0.000000 1.833620 -0.299593
v -0.000000 0.331818 0.309193
v -0.000000 0.322935 -0.299581
v 0.000000 0.724549 -0.720417
v 0.245175 1.255143 0.860206
v 0.245175 1.635346 0.684930
v 0.245175 1.838306 0.468649
v 0.245175 1.958103 0.143925
v 0.245175 1.839591 -0.465155
v 0.245175 1.959388 -0.140431
v 0.245175 1.617513 -0.693147
v 0.245175 1.237310 -0.868423
v 0.245175 0.570130 -0.726781
v 0.245175 0.923683 -0.873227
v 0.245175 0.205036 -0.154591
v 0.245175 0.351483 -0.508144
v 0.245175 0.205042 0.154611
v 0.245175 0.351489 0.508164
v 0.245175 0.570134 0.726798
v 0.245175 0.923687 0.873244
v -0.000000 1.817705 0.494465
v 0.000000 1.953310 0.152640
v -0.000000 1.599076 0.713095
v -0.000000 1.234681 0.871270
v -0.000000 0.923680 0.873228
v -0.000000 0.570127 0.726782
v -0.000000 0.351493 0.508150
v -0.000000 0.205046 0.154596
v 0.000000 0.320402 -0.474515
v -0.000000 0.200605 -0.149791
v 0.000000 0.521209 -0.684933
v 0.000000 0.901412 -0.860209
v 0.000000 1.617514 -0.693152
v 0.000000 1.237311 -0.868428
v 0.000000 1.955947 -0.149796
v 0.000000 1.836150 -0.474520
v 0.000000 1.883533 -0.498509
v 0.000000 0.873121 -0.916289
v -0.000000 0.530308 0.767899
v 0.000000 2.010955 -0.153115
v 0.000000 1.274516 -0.920399
v -0.000000 0.310375 0.547967
v 0.000000 2.009637 0.154537
v 0.000000 1.641787 -0.751085
v -0.000000 0.147816 0.155515
v -0.000000 1.874310 0.508482
v -0.000000 0.145596 -0.153113
v -0.000000 1.632568 0.761056
v 0.000000 0.273018 -0.498507
v -0.000000 1.234695 0.929479
v 0.000000 0.475018 -0.722669
v -0.000000 0.922760 0.930458
v 0.245175 0.530312 0.767907
v 0.245175 0.922762 -0.930458
v 0.245175 0.922764 0.930466
v 0.245175 0.562953 -0.789711
v 0.245175 1.283432 0.916288
v 0.245175 0.310371 -0.547965
v 0.245175 2.012676 -0.148433
v 0.245175 1.681535 0.722668
v 0.245175 0.147812 -0.155513
v 0.245175 1.885253 -0.493827
v 0.245175 1.884611 0.495574
v 0.245175 0.147814 0.155523
v 0.245175 1.641787 -0.751082
v 0.245175 2.012033 0.150180
v 0.245175 0.310373 0.547975
v 0.245175 1.236010 -0.928056
v 0.245175 1.407849 0.903647
vn 1.0000 -0.0000 -0.0000
vn -1.0000 -0.0000 -0.0000
vn -0.0000 -0.0393 -0.9992
vn -0.0000 -0.1175 -0.9931
vn -0.0000 -0.1951 -0.9808
vn -0.0000 -0.2714 -0.9625
vn -0.0000 -0.3461 -0.9382
vn -0.0000 -0.4187 -0.9081
vn -0.0000 -0.4886 -0.8725
vn -0.0000 -0.5556 -0.8315
vn -0.0000 -0.6191 -0.7853
vn -0.0000 -0.6788 -0.7343
vn -0.0000 -0.7343 -0.6788
vn -0.0000 -0.7853 -0.6191
vn -0.0000 -0.8315 -0.5556
vn -0.0000 -0.8725 -0.4886
vn -0.0000 -0.9081 -0.4187
vn -0.0000 -0.9382 -0.3461
vn -0.0000 -0.9625 -0.2714
vn -0.0000 -0.9808 -0.1951
vn -0.0000 -0.9931 -0.1175
vn -0.0000 -0.9992 -0.0393
vn -0.0000 0.0393 -0.9992
vn -0.0000 0.1175 -0.9931
vn -0.0000 0.1951 -0.9808
vn -0.0000 0.2714 -0.9625
vn -0.0000 0.3461 -0.9382
vn -0.0000 0.4187 -0.9081
vn -0.0000 0.4886 -0.8725
vn -0.0000 0.5556 -0.8315
vn -0.0000 0.6191 -0.7853
vn -0.0000 0.6788 -0.7343
vn -0.0000 0.7343 -0.6788
vn -0.0000 0.7853 -0.6191
vn -0.0000 0.8315 -0.5556
vn -0.0000 0.8725 -0.4886
vn -0.0000 0.9081 -0.4187
vn -0.0000 0.9382 -0.3461
vn -0.0000 0.9625 -0.2714
vn -0.0000 0.9808 -0.1951
vn -0.0000 0.9931 -0.1175
vn -0.0000 0.9992 -0.0393
vn -0.0000 -0.9992 0.0393
vn -0.0000 -0.9931 0.1175
vn -0.0000 -0.9808 0.1951
vn -0.0000 -0.9625 0.2714
vn -0.0000 -0.9382 0.3461
vn -0.0000 -0.9081 0.4187
vn -0.0000 -0.8725 0.4886
vn -0.0000 -0.8315 0.5556
vn -0.0000 -0.7853 0.6191
vn -0.0000 -0.7343 0.6788
vn -0.0000 -0.6788 0.7343
vn -0.0000 -0.6191 0.7853
vn -0.0000 -0.5556 0.8315
vn -0.0000 -0.4886 0.8725
vn -0.0000 -0.4187 0.9081
vn -0.0000 -0.3461 0.9382
vn -0.0000 -0.2714 0.9625
vn -0.0000 -0.1951 0.9808
vn -0.0000 -0.1175 0.9931
vn -0.0000 -0.0393 0.9992
vn -0.0000 0.0393 0.9992
vn -0.0000 0.1175 0.9931
vn -0.0000 0.1951 0.9808
vn -0.0000 0.2714 0.9625
vn -0.0000 0.3461 0.9382
vn -0.0000 0.4187 0.9081
vn -0.0000 0.4886 0.8725
vn -0.0000 0.5556 0.8315
vn -0.0000 0.6191 0.7853
vn -0.0000 0.6788 0.7343
vn -0.0000 0.7343 0.6788
vn -0.0000 0.7853 0.6191
vn -0.0000 0.8315 0.5556
vn -0.0000 0.8725 0.4886
vn -0.0000 0.9081 0.4187
vn -0.0000 0.9382 0.3461
vn -0.0000 0.9625 0.2714
vn -0.0000 0.9808 0.1951
vn -0.0000 0.9931 0.1175
vn -0.0000 0.9992 0.0393
vt 0.505748 0.062934
vt 0.606376 0.251410
vt 0.502874 0.281467
vt 0.061116 0.494276
vt 0.280558 0.497138
vt 0.261870 0.610646
vt 0.500000 0.500000
vt 0.640087 0.669347
vt 0.497126 0.718533
vt 0.400243 0.249735
vt 0.062995 0.502018
vt 0.062995 0.501554
vt 0.062992 0.501094
vt 0.062986 0.500638
vt 0.062978 0.500191
vt 0.062966 0.499756
vt 0.062952 0.499334
vt 0.062934 0.498928
vt 0.062915 0.498541
vt 0.062893 0.498176
vt 0.062872 0.496681
vt 0.062508 0.496556
vt 0.062420 0.496456
vt 0.062327 0.496365
vt 0.062228 0.496284
vt 0.062126 0.496214
vt 0.062020 0.496155
vt 0.061912 0.496107
vt 0.061801 0.496071
vt 0.061689 0.496047
vt 0.061576 0.496035
vt 0.062992 0.502481
vt 0.062986 0.502941
vt 0.062978 0.503396
vt 0.062966 0.503841
vt 0.062952 0.504276
vt 0.062934 0.504696
vt 0.062915 0.505100
vt 0.062893 0.505484
vt 0.062868 0.505847
vt 0.062838 0.507339
vt 0.062474 0.507425
vt 0.062385 0.507516
vt 0.062291 0.507596
vt 0.062192 0.507667
vt 0.062089 0.507726
vt 0.061983 0.507774
vt 0.062035 0.507750
vt 0.061874 0.507810
vt 0.061763 0.507834
vt 0.061651 0.507846
vt 0.061538 0.507846
vt 0.061463 0.496035
vt 0.061351 0.496047
vt 0.061240 0.496071
vt 0.061131 0.496107
vt 0.061025 0.496155
vt 0.060923 0.496214
vt 0.060824 0.496284
vt 0.060730 0.496365
vt 0.060641 0.496456
vt 0.060277 0.496541
vt 0.060246 0.498034
vt 0.060222 0.498397
vt 0.060200 0.498781
vt 0.060180 0.499185
vt 0.060163 0.499605
vt 0.060149 0.500039
vt 0.060137 0.500485
vt 0.060128 0.500939
vt 0.060122 0.501400
vt 0.060119 0.501863
vt 0.060119 0.502326
vt 0.060122 0.502787
vt 0.060128 0.503242
vt 0.060137 0.503689
vt 0.060149 0.504125
vt 0.060163 0.504547
vt 0.060180 0.504953
vt 0.060200 0.505339
vt 0.060222 0.505705
vt 0.060391 0.506658
vt 0.060243 0.507200
vt 0.060606 0.507324
vt 0.060391 0.507250
vt 0.060694 0.507425
vt 0.060788 0.507516
vt 0.060886 0.507596
vt 0.060989 0.507667
vt 0.061022 0.507686
vt 0.061094 0.507726
vt 0.061203 0.507774
vt 0.061314 0.507810
vt 0.061426 0.507834
vt 0.347491 0.343135
vt 0.353265 0.660673
vt 0.788392 0.168142
vt 0.742430 0.391292
vt 0.819032 0.350157
vt 0.803712 0.259150
vt 0.780174 0.838695
vt 0.801373 0.741125
vt 0.822571 0.643555
vt 0.739694 0.614802
vt 0.224497 0.837645
vt 0.362248 0.668823
vt 0.406243 0.758224
vt 0.656704 0.345674
vt 0.719442 0.502862
vt 0.739685 0.614802
vt 0.822567 0.643555
vt 0.801371 0.741125
vt 0.591484 0.758591
vt 0.252034 0.393519
vt 0.400263 0.752804
vt 0.494252 0.937066
vt 0.644196 0.334071
vt 0.400218 0.249727
vt 0.750762 0.399032
vt 0.591452 0.758577
vt 0.255889 0.605212
vt 0.206530 0.821347
vt 0.174710 0.632907
vt 0.190620 0.727127
vt 0.194982 0.186270
vt 0.184179 0.273305
vt 0.173375 0.360341
vt 0.374012 0.167936
vt 0.284497 0.177103
vt 0.598045 0.243693
vt 0.636766 0.168638
vt 0.571257 0.115786
vt 0.938884 0.505724
vt 0.368960 0.828457
vt 0.431606 0.882762
vt 0.624273 0.834652
vt 0.702224 0.836673
vt 0.183076 0.649108
vt 0.122096 0.571692
vt 0.435189 0.884933
vt 0.376126 0.832799
vt 0.813408 0.191348
vt 0.822177 0.280374
vt 0.830946 0.369400
vt 0.640931 0.172497
vt 0.727169 0.181922
vt 0.284491 0.177101
vt 0.374000 0.167932
vt 0.252005 0.393530
vt 0.173361 0.360346
vt 0.184172 0.273308
vt 0.698764 0.837729
vt 0.617353 0.836762
vt 0.346010 0.907374
vt 0.300312 0.835222
vt 0.555803 0.886914
vt 0.905449 0.672308
vt 0.880726 0.574640
vt 0.906766 0.574839
vt 0.884915 0.437562
vt 0.675486 0.093584
vt 0.573340 0.117715
vt 0.439874 0.115433
vt 0.094717 0.327163
vt 0.117239 0.427311
vt 0.104283 0.687569
vt 0.203787 0.743376
vt 0.337657 0.904111
vt 0.287745 0.824902
vt 0.286808 0.852206
vt 0.657062 0.910712
vt 0.559263 0.885859
vt 0.880728 0.574640
vt 0.895634 0.309022
vt 0.878958 0.427941
vt 0.905159 0.416997
vt 0.712579 0.168390
vt 0.347781 0.086138
vt 0.439880 0.115435
vt 0.117246 0.427308
vt 0.093531 0.660602
vt 0.091210 0.564625
vt 0.079603 0.627339
vt 0.903411 0.589849
vt 0.091723 0.426618
vt 0.911130 0.339769
vt 0.910966 0.437687
vt 0.559896 0.909690
vt 0.643255 0.914947
vt 0.438471 0.089633
vt 0.471308 0.062934
vt 0.117913 0.563591
vt 0.100048 0.635593
vt 0.095814 0.583617
vt 0.183816 0.761289
vt 0.293091 0.857366
vt 0.430155 0.908161
vt 0.394439 0.922823
vt 0.363862 0.914347
vt 0.709419 0.858774
vt 0.687363 0.897339
vt 0.829079 0.747197
vt 0.850023 0.277278
vt 0.742607 0.162871
vt 0.573860 0.091669
vt 0.268932 0.156387
vt 0.164529 0.258504
vt 0.091720 0.426619
vt 0.428364 0.907076
vt 0.166556 0.738328
vt 0.164533 0.258503
vt 0.110665 0.296656
vt 0.438474 0.089634
vt 0.268935 0.156388
vt 0.722715 0.147192
vt 0.572819 0.090704
vt 0.820899 0.238353
vt 0.829080 0.747197
vt 0.561626 0.909162
vt 0.711149 0.858246
vt 0.563990 0.932466
vt 0.598347 0.926443
vt 0.720073 0.879819
vt 0.748439 0.862090
vt 0.856788 0.753269
vt 0.832396 0.784888
vt 0.932806 0.575038
vt 0.937982 0.540010
vt 0.937017 0.437811
vt 0.931359 0.406053
vt 0.877870 0.274182
vt 0.858353 0.243634
vt 0.758044 0.143820
vt 0.574381 0.065623
vt 0.540177 0.063832
vt 0.437068 0.063832
vt 0.407412 0.069199
vt 0.253373 0.135673
vt 0.223237 0.159687
vt 0.144887 0.243700
vt 0.170830 0.210881
vt 0.066201 0.425927
vt 0.062614 0.460586
vt 0.069532 0.595543
vt 0.064507 0.565658
vt 0.163846 0.779201
vt 0.195221 0.811718
vt 0.285870 0.879510
vt 0.254693 0.860912
vt 0.425121 0.931390
vt 0.459823 0.936168
vt 0.528692 0.937066
vt 0.142492 0.749529
vt 0.061116 0.528573
vt 0.075441 0.391701
vt 0.540177 0.063832
vt 0.732852 0.125993
vt 0.838086 0.217555
vt 0.926095 0.605058
vt 0.916724 0.641221
vt 0.937982 0.540010
vt 0.629857 0.919057
vt 0.308515 0.892740
vt 0.121510 0.716310
vt 0.379568 0.076640
vt 0.317019 0.101844
vt 0.705271 0.108914
vt 0.643207 0.081966
vt 0.892296 0.698122
vt 0.938884 0.471427
vt 0.084954 0.359308
vt 0.126805 0.267979
vt 0.528692 0.937066
vt 0.061116 0.528574
vt 0.805520 0.814949
vt 0.876240 0.726405
vt 0.922403 0.373465
vt 0.608151 0.074568
vt 0.292839 0.114790
vt 0.194208 0.810169
vt 0.932806 0.575038
s 0
usemtl Material.003
f 192/1/1 191/2/1 168/3/1
f 194/4/1 166/5/1 185/6/1
f 3/7/1 171/8/1 169/9/1
f 1/1/2 177/10/2 159/3/2
f 2/7/2 158/9/2 160/8/2
f 179/11/3 4/11/3 118/12/3 24/12/3
f 24/12/4 118/12/4 117/13/4 25/13/4
f 25/13/5 117/13/5 116/14/5 26/14/5
f 26/14/6 116/14/6 115/15/6 27/15/6
f 27/15/7 115/15/7 114/16/7 28/16/7
f 28/16/8 114/16/8 113/17/8 29/17/8
f 29/17/9 113/17/9 112/18/9 30/18/9
f 30/18/10 112/18/10 111/19/10 31/19/10
f 31/19/11 111/19/11 110/20/11 32/20/11
f 32/20/12 110/20/12 109/21/12 33/21/12
f 33/21/13 109/21/13 108/22/13 34/22/13
f 34/22/14 108/22/14 107/23/14 35/23/14
f 35/23/15 107/23/15 106/24/15 36/24/15
f 36/24/16 106/24/16 105/25/16 37/25/16
f 37/25/17 105/25/17 104/26/17 38/26/17
f 38/26/18 104/26/18 103/27/18 39/27/18
f 39/27/19 103/27/19 102/28/19 40/28/19
f 40/28/20 102/28/20 101/29/20 41/29/20
f 41/29/21 101/29/21 100/30/21 42/30/21
f 42/30/22 100/30/22 192/31/22 1/31/22
f 4/11/23 179/11/23 80/32/23 138/32/23
f 138/32/24 80/32/24 79/33/24 139/33/24
f 139/33/25 79/33/25 78/34/25 140/34/25
f 140/34/26 78/34/26 77/35/26 141/35/26
f 141/35/27 77/35/27 76/36/27 142/36/27
f 142/36/28 76/36/28 75/37/28 143/37/28
f 143/37/29 75/37/29 74/38/29 144/38/29
f 144/38/30 74/38/30 73/39/30 145/39/30
f 145/39/31 73/39/31 72/40/31 146/40/31
f 146/40/32 72/40/32 71/41/32 147/41/32
f 147/41/33 71/41/33 70/42/33 148/42/33
f 148/42/34 70/42/34 69/43/34 149/43/34
f 149/43/35 69/43/35 68/44/35 150/44/35
f 150/44/36 68/44/36 67/45/36 151/45/36
f 151/45/37 67/45/37 66/46/37 152/46/37
f 152/46/38 66/46/38 65/47/38 153/47/38 197/48/38
f 153/47/39 65/47/39 64/49/39 154/49/39
f 154/49/40 64/49/40 63/50/40 155/50/40
f 155/50/41 63/50/41 62/51/41 156/51/41
f 156/51/42 62/51/42 183/52/42 187/52/42
f 1/31/43 192/31/43 99/53/43 5/53/43
f 5/53/44 99/53/44 98/54/44 6/54/44
f 6/54/45 98/54/45 97/55/45 7/55/45
f 7/55/46 97/55/46 96/56/46 8/56/46
f 8/56/47 96/56/47 95/57/47 9/57/47
f 9/57/48 95/57/48 94/58/48 10/58/48
f 10/58/49 94/58/49 93/59/49 11/59/49
f 11/59/50 93/59/50 92/60/50 12/60/50
f 12/60/51 92/60/51 91/61/51 13/61/51
f 13/61/52 91/61/52 90/62/52 14/62/52
f 14/62/53 90/62/53 89/63/53 15/63/53
f 15/63/54 89/63/54 88/64/54 16/64/54
f 16/64/55 88/64/55 87/65/55 17/65/55
f 17/65/56 87/65/56 86/66/56 18/66/56
f 18/66/57 86/66/57 85/67/57 19/67/57
f 19/67/58 85/67/58 84/68/58 20/68/58
f 20/68/59 84/68/59 83/69/59 21/69/59
f 21/69/60 83/69/60 82/70/60 22/70/60
f 22/70/61 82/70/61 81/71/61 23/71/61
f 23/71/62 81/71/62 194/72/62 174/72/62
f 174/72/63 194/72/63 137/73/63 43/73/63
f 43/73/64 137/73/64 136/74/64 44/74/64
f 44/74/65 136/74/65 135/75/65 45/75/65
f 45/75/66 135/75/66 134/76/66 46/76/66
f 46/76/67 134/76/67 133/77/67 47/77/67
f 47/77/68 133/77/68 132/78/68 48/78/68
f 48/78/69 132/78/69 131/79/69 49/79/69
f 49/79/70 131/79/70 130/80/70 50/80/70
f 50/80/71 130/80/71 129/81/71 51/81/71
f 51/81/72 129/81/72 128/82/72 52/83/72
f 52/83/73 128/82/73 127/84/73 53/84/73 157/85/73
f 53/84/74 127/84/74 126/86/74 54/86/74
f 54/86/75 126/86/75 125/87/75 55/87/75
f 55/87/76 125/87/76 124/88/76 56/88/76
f 56/88/77 124/88/77 123/89/77 57/89/77
f 57/89/78 123/89/78 196/90/78 122/91/78 58/91/78
f 58/91/79 122/91/79 121/92/79 59/92/79
f 59/92/80 121/92/80 120/93/80 60/93/80
f 60/93/81 120/93/81 119/94/81 61/94/81
f 61/94/82 119/94/82 187/52/82 183/52/82
f 2/7/2 165/95/2 161/5/2
f 2/7/2 163/96/2 158/9/2
f 34/97/2 180/98/2 213/99/2 240/100/2
f 70/101/2 242/102/2 198/103/2 181/104/2
f 127/105/1 172/106/1 186/107/1
f 3/7/1 170/95/1 168/3/1
f 3/7/1 167/108/1 173/109/1
f 148/101/1 189/110/1 202/111/1 220/112/1
f 159/3/2 165/95/2 2/7/2
f 160/8/2 158/9/2 184/113/2
f 161/5/2 165/95/2 176/114/2
f 161/5/2 163/96/2 2/7/2
f 158/9/2 182/115/2 183/116/2
f 164/117/2 159/3/2 2/7/2
f 162/109/2 164/117/2 2/7/2
f 160/8/2 162/109/2 2/7/2
f 169/9/1 172/106/1 3/7/1
f 166/5/1 170/95/1 3/7/1
f 168/3/1 170/95/1 193/118/1
f 173/109/1 167/108/1 190/119/1
f 172/106/1 166/5/1 3/7/1
f 169/9/1 171/8/1 188/120/1
f 173/109/1 171/8/1 3/7/1
f 168/3/1 167/108/1 3/7/1
f 163/96/2 175/121/2 157/122/2
f 157/122/2 175/121/2 209/123/2 232/124/2
f 161/5/2 175/121/2 163/96/2
f 14/125/2 235/126/2 199/127/2 176/114/2
f 176/114/2 174/4/2 161/5/2
f 176/114/2 165/95/2 14/125/2
f 165/95/2 177/10/2 14/125/2
f 159/3/2 177/10/2 165/95/2
f 14/125/2 177/10/2 211/128/2 236/129/2
f 34/97/2 178/130/2 164/117/2
f 164/117/2 178/130/2 159/3/2
f 1/1/2 178/130/2 212/131/2 239/132/2
f 162/109/2 180/98/2 164/117/2
f 180/98/2 34/97/2 164/117/2
f 160/8/2 181/104/2 162/109/2
f 162/109/2 181/104/2 179/133/2
f 181/104/2 160/8/2 70/101/2
f 157/122/2 182/115/2 163/96/2
f 183/116/2 182/115/2 208/134/2 231/135/2
f 163/96/2 182/115/2 158/9/2
f 70/101/2 184/113/2 210/136/2 245/137/2
f 184/113/2 70/101/2 160/8/2
f 127/105/1 185/6/1 172/106/1
f 194/4/1 185/6/1 200/138/1 214/139/1
f 172/106/1 185/6/1 166/5/1
f 187/116/1 186/107/1 169/9/1
f 186/107/1 187/116/1 217/140/1 203/141/1
f 169/9/1 186/107/1 172/106/1
f 188/120/1 187/116/1 169/9/1
f 188/120/1 171/8/1 148/101/1
f 173/109/1 189/110/1 171/8/1
f 171/8/1 189/110/1 148/101/1
f 4/133/1 189/110/1 173/109/1
f 109/142/1 222/143/1 201/144/1 190/119/1
f 190/119/1 167/108/1 109/142/1
f 167/108/1 191/2/1 109/142/1
f 109/142/1 191/2/1 206/145/1 225/146/1
f 168/3/1 191/2/1 167/108/1
f 90/125/1 227/147/1 205/148/1 193/118/1
f 193/118/1 192/1/1 168/3/1
f 193/118/1 170/95/1 90/125/1
f 170/95/1 195/149/1 90/125/1
f 166/5/1 195/149/1 170/95/1
f 90/125/1 195/149/1 207/150/1 228/151/1
f 1/1/2 159/3/2 178/130/2
f 194/4/1 195/149/1 166/5/1
f 161/5/2 174/4/2 175/121/2
f 179/133/2 180/98/2 162/109/2
f 183/116/2 184/113/2 158/9/2
f 148/101/1 218/152/1 204/153/1 188/120/1
f 190/119/1 4/133/1 173/109/1
f 196/154/1 216/155/1 203/141/1
f 188/120/1 204/153/1 219/156/1 187/116/1
f 142/157/1 221/158/1 277/159/1
f 190/119/1 201/144/1 223/160/1 4/133/1
f 104/161/1 206/145/1 224/162/1
f 193/118/1 205/148/1 226/163/1 192/1/1
f 85/164/1 207/150/1 229/165/1
f 132/166/1 200/138/1 215/167/1
f 57/168/2 230/169/2 255/170/2
f 66/171/2 210/136/2 244/172/2
f 181/104/2 198/103/2 243/173/2 179/133/2
f 29/174/2 241/175/2 247/176/2
f 38/161/2 212/131/2 238/177/2
f 9/178/2 211/128/2 237/179/2
f 176/114/2 199/127/2 234/180/2 174/4/2
f 47/181/2 259/182/2 46/183/2
f 179/133/2 243/173/2 250/184/2
f 198/103/2 242/102/2 76/157/2
f 199/127/2 235/126/2 19/164/2
f 174/4/2 234/180/2 261/185/2
f 127/105/1 215/167/1 200/138/1 185/6/1
f 200/138/1 132/166/1 214/139/1
f 201/144/1 222/143/1 114/186/1
f 4/133/1 223/160/1 263/187/1
f 203/141/1 216/155/1 127/105/1 186/107/1
f 202/111/1 142/157/1 220/112/1
f 187/116/1 219/156/1 268/188/1
f 4/133/1 221/158/1 202/111/1 189/110/1
f 203/141/1 217/140/1 196/154/1
f 204/153/1 218/152/1 197/189/1
f 192/1/1 273/190/1 99/191/1
f 205/148/1 227/147/1 95/178/1
f 207/150/1 85/164/1 228/151/1
f 194/4/1 229/165/1 207/150/1 195/149/1
f 206/145/1 104/161/1 225/146/1
f 192/1/1 224/162/1 206/145/1 191/2/1
f 183/116/2 244/172/2 210/136/2 184/113/2
f 209/123/2 47/181/2 232/124/2
f 210/136/2 66/171/2 245/137/2
f 174/4/2 233/192/2 209/123/2 175/121/2
f 157/122/2 230/169/2 208/134/2 182/115/2
f 208/134/2 57/168/2 231/135/2
f 213/99/2 29/174/2 240/100/2
f 212/131/2 38/161/2 239/132/2
f 179/133/2 241/175/2 213/99/2 180/98/2
f 211/128/2 9/178/2 236/129/2
f 34/97/2 238/177/2 212/131/2 178/130/2
f 1/1/2 237/179/2 211/128/2 177/10/2
f 214/139/1 132/166/1 278/193/1 266/194/1
f 215/167/1 269/195/1 132/166/1
f 216/155/1 196/154/1 272/196/1
f 196/154/1 275/197/1 121/198/1 122/199/1
f 197/189/1 219/156/1 204/153/1
f 197/189/1 271/200/1 151/201/1 152/171/1
f 220/112/1 142/157/1 274/202/1
f 221/158/1 142/157/1 202/111/1
f 114/186/1 223/160/1 201/144/1
f 114/186/1 222/143/1 265/203/1
f 225/146/1 104/161/1 267/204/1
f 224/162/1 270/205/1 104/161/1
f 95/178/1 226/163/1 205/148/1
f 95/178/1 227/147/1 276/206/1
f 228/151/1 85/164/1 262/207/1
f 229/165/1 264/208/1 85/164/1
f 231/135/2 57/168/2 252/209/2
f 230/169/2 57/168/2 208/134/2
f 232/124/2 47/181/2 257/210/2
f 233/192/2 47/181/2 209/123/2
f 19/164/2 248/211/2 18/212/2
f 19/164/2 234/180/2 199/127/2
f 237/179/2 254/213/2 9/178/2
f 236/129/2 9/178/2 251/214/2
f 238/177/2 258/215/2 38/161/2
f 239/132/2 38/161/2 256/216/2
f 240/100/2 29/174/2 260/217/2
f 241/175/2 29/174/2 213/99/2
f 76/157/2 243/173/2 198/103/2
f 76/157/2 242/102/2 253/218/2
f 244/172/2 249/219/2 66/171/2
f 245/137/2 66/171/2 246/220/2
f 155/221/1 268/188/1 154/222/1
f 150/223/1 271/200/1 149/224/1
f 145/225/1 146/226/1 274/202/1
f 139/227/1 277/159/1 138/228/1
f 117/229/1 263/187/1 116/230/1
f 112/231/1 265/203/1 111/232/1
f 107/233/1 108/97/1 267/204/1
f 101/234/1 270/205/1 100/235/1
f 98/236/1 273/190/1 97/237/1
f 92/238/1 276/206/1 91/239/1
f 88/240/1 89/241/1 262/207/1
f 82/242/1 264/208/1 81/243/1
f 135/244/1 136/245/1 266/194/1
f 129/246/1 269/195/1 128/247/1
f 125/248/1 126/249/1 272/196/1
f 120/250/1 275/197/1 119/251/1
f 68/223/2 69/224/2 246/220/2
f 63/221/2 249/219/2 62/252/2
f 60/250/2 61/251/2 252/209/2
f 55/248/2 255/170/2 54/249/2
f 50/253/2 51/246/2 257/210/2
f 44/245/2 259/182/2 43/254/2
f 22/242/2 261/185/2 21/255/2
f 16/240/2 248/211/2 15/241/2
f 12/238/2 13/239/2 251/214/2
f 6/236/2 254/213/2 5/191/2
f 41/234/2 42/256/2 256/216/2
f 36/257/2 258/215/2 35/233/2
f 32/258/2 33/142/2 260/217/2
f 26/230/2 247/176/2 25/229/2
f 78/259/2 250/184/2 77/260/2
f 73/225/2 253/218/2 72/226/2
f 250/184/2 80/261/2 179/133/2
f 246/220/2 70/101/2 245/137/2
f 66/171/2 249/219/2 65/262/2
f 183/116/2 249/219/2 244/172/2
f 246/220/2 66/171/2 67/201/2
f 252/209/2 183/116/2 231/135/2
f 157/122/2 255/170/2 230/169/2
f 255/170/2 56/263/2 57/168/2
f 257/210/2 157/122/2 232/124/2
f 252/209/2 57/168/2 58/199/2
f 174/4/2 259/182/2 233/192/2
f 19/164/2 261/185/2 234/180/2
f 247/176/2 28/186/2 29/174/2
f 257/210/2 48/166/2 49/264/2
f 14/125/2 248/211/2 235/126/2
f 251/214/2 14/125/2 236/129/2
f 248/211/2 19/164/2 235/126/2
f 1/1/2 254/213/2 237/179/2
f 256/216/2 1/1/2 239/132/2
f 259/182/2 47/181/2 233/192/2
f 9/178/2 254/213/2 8/265/2
f 34/97/2 258/215/2 238/177/2
f 251/214/2 9/178/2 10/266/2
f 260/217/2 34/97/2 240/100/2
f 38/161/2 258/215/2 37/267/2
f 179/133/2 247/176/2 241/175/2
f 256/216/2 38/161/2 39/268/2
f 76/157/2 250/184/2 243/173/2
f 261/185/2 23/243/2 174/4/2
f 260/217/2 29/174/2 30/231/2
f 70/101/2 253/218/2 242/102/2
f 253/218/2 75/269/2 76/157/2
f 263/187/1 118/270/1 4/133/1
f 276/206/1 94/266/1 95/178/1
f 197/189/1 268/188/1 219/156/1
f 277/159/1 141/260/1 142/157/1
f 148/101/1 271/200/1 218/152/1
f 85/164/1 264/208/1 84/271/1
f 274/202/1 148/101/1 220/112/1
f 4/133/1 277/159/1 221/158/1
f 114/186/1 263/187/1 223/160/1
f 266/194/1 278/193/1 134/183/1
f 109/142/1 265/203/1 222/143/1
f 132/166/1 269/195/1 131/264/1
f 267/204/1 109/142/1 225/146/1
f 272/196/1 196/154/1 123/168/1 124/263/1
f 192/1/1 270/205/1 224/162/1
f 275/197/1 196/154/1 217/140/1
f 95/178/1 273/190/1 226/163/1
f 90/125/1 276/206/1 227/147/1
f 271/200/1 197/189/1 218/152/1
f 262/207/1 86/212/1 87/272/1
f 262/207/1 90/125/1 228/151/1
f 274/202/1 142/157/1 143/269/1
f 194/4/1 264/208/1 229/165/1
f 268/188/1 155/221/1 156/273/1
f 266/194/1 194/4/1 214/139/1
f 127/105/1 269/195/1 215/167/1
f 273/190/1 192/1/1 226/163/1
f 265/203/1 112/231/1 113/174/1
f 272/196/1 127/105/1 216/155/1
f 267/204/1 105/267/1 106/257/1
f 187/116/1 275/197/1 217/140/1
f 104/161/1 270/205/1 103/268/1
f 266/194/1 136/245/1 137/274/1
f 137/274/1 194/4/1 266/194/1
f 134/183/1 278/193/1 133/181/1
f 133/181/1 278/193/1 132/166/1
f 131/264/1 269/195/1 130/253/1
f 130/253/1 269/195/1 129/246/1
f 128/247/1 269/195/1 127/105/1
f 272/196/1 126/249/1 127/105/1
f 124/263/1 125/248/1 272/196/1
f 121/198/1 275/197/1 120/250/1
f 119/251/1 275/197/1 187/116/1
f 154/222/1 268/188/1 197/189/1 153/262/1
f 156/273/1 187/116/1 268/188/1
f 151/201/1 271/200/1 150/223/1
f 149/224/1 271/200/1 148/101/1
f 274/202/1 146/226/1 147/275/1
f 147/275/1 148/101/1 274/202/1
f 143/269/1 144/276/1 274/202/1
f 144/276/1 145/225/1 274/202/1
f 141/260/1 277/159/1 140/259/1
f 140/259/1 277/159/1 139/227/1
f 138/228/1 277/159/1 4/133/1
f 118/270/1 263/187/1 117/229/1
f 116/230/1 263/187/1 115/277/1
f 115/277/1 263/187/1 114/186/1
f 111/232/1 265/203/1 110/258/1
f 113/174/1 114/186/1 265/203/1
f 110/258/1 265/203/1 109/142/1
f 106/257/1 107/233/1 267/204/1
f 267/204/1 108/97/1 109/142/1
f 105/267/1 267/204/1 104/161/1
f 103/268/1 270/205/1 102/278/1
f 102/278/1 270/205/1 101/234/1
f 100/235/1 270/205/1 192/1/1
f 99/191/1 273/190/1 98/236/1
f 97/237/1 273/190/1 96/265/1
f 96/265/1 273/190/1 95/178/1
f 94/266/1 276/206/1 93/279/1
f 93/279/1 276/206/1 92/238/1
f 91/239/1 276/206/1 90/125/1
f 87/272/1 88/240/1 262/207/1
f 262/207/1 89/241/1 90/125/1
f 86/212/1 262/207/1 85/164/1
f 84/271/1 264/208/1 83/255/1
f 83/255/1 264/208/1 82/242/1
f 81/243/1 264/208/1 194/4/1
f 134/183/1 135/244/1 266/194/1
f 246/220/2 69/224/2 70/101/2
f 67/201/2 68/223/2 246/220/2
f 65/262/2 249/219/2 64/222/2
f 64/222/2 249/219/2 63/221/2
f 62/252/2 249/219/2 183/116/2
f 252/209/2 61/251/2 183/116/2
f 59/198/2 60/250/2 252/209/2
f 58/199/2 59/198/2 252/209/2
f 56/263/2 255/170/2 55/248/2
f 54/249/2 255/170/2 157/122/2 53/105/2
f 49/264/2 50/253/2 257/210/2
f 257/210/2 51/246/2 52/280/2 157/122/2
f 48/166/2 257/210/2 47/181/2
f 46/183/2 259/182/2 45/244/2
f 45/244/2 259/182/2 44/245/2
f 43/254/2 259/182/2 174/4/2
f 23/243/2 261/185/2 22/242/2
f 21/255/2 261/185/2 20/271/2
f 20/271/2 261/185/2 19/164/2
f 18/212/2 248/211/2 17/272/2
f 17/272/2 248/211/2 16/240/2
f 15/241/2 248/211/2 14/125/2
f 251/214/2 13/239/2 14/125/2
f 11/279/2 12/238/2 251/214/2
f 10/266/2 11/279/2 251/214/2
f 8/265/2 254/213/2 7/237/2
f 7/237/2 254/213/2 6/236/2
f 5/191/2 254/213/2 1/1/2
f 256/216/2 42/256/2 1/1/2
f 40/278/2 41/234/2 256/216/2
f 39/268/2 40/278/2 256/216/2
f 37/267/2 258/215/2 36/257/2
f 35/233/2 258/215/2 34/97/2
f 260/217/2 33/142/2 34/97/2
f 31/232/2 32/258/2 260/217/2
f 30/231/2 31/232/2 260/217/2
f 28/186/2 247/176/2 27/277/2
f 27/277/2 247/176/2 26/230/2
f 25/229/2 247/176/2 24/270/2
f 24/270/2 247/176/2 179/133/2
f 80/261/2 250/184/2 79/281/2
f 77/260/2 250/184/2 76/157/2
f 79/281/2 250/184/2 78/259/2
f 75/269/2 253/218/2 74/276/2
f 71/275/2 253/218/2 70/101/2
f 72/226/2 253/218/2 71/275/2
f 74/276/2 253/218/2 73/225/2
