# Blender 4.3.2
# www.blender.org
mtllib flatWindow.mtl
o Grid.001
v -0.000000 0.076786 2.007387
v -0.000000 0.076786 0.000000
v -0.000000 0.076786 -2.007387
v 0.000000 1.611534 2.007387
v -0.000000 1.611534 0.000000
v -0.000000 1.611534 -2.007387
v 0.000000 3.146283 2.007387
v 0.000000 3.146283 0.000000
v -0.000000 3.146283 -2.007387
v 0.000000 4.681031 -0.000000
v 0.345875 1.611534 2.007387
v 0.345875 0.076786 2.007387
v 0.345875 0.076786 -0.000000
v 0.345875 1.611534 -0.000000
v 0.345875 0.076786 -2.007387
v 0.345875 1.611534 -2.007387
v 0.345875 3.146283 2.007387
v 0.345875 3.146283 -0.000000
v 0.345875 3.146283 -2.007387
v 0.345875 4.681031 2.007387
v 0.345875 4.681031 -0.000000
v 0.345875 4.681031 -2.007387
v 0.000000 4.866025 1.992751
v 0.000000 5.048321 1.949056
v 0.000000 5.225261 1.876940
v 0.000000 5.394265 1.777453
v 0.000000 5.552868 1.652047
v 0.000000 5.698758 1.502551
v 0.000000 5.829807 1.331144
v 0.000000 5.944105 1.140326
v 0.000000 6.039984 0.932879
v 0.000000 6.116046 0.711829
v 0.000000 6.171183 0.480399
v 0.000000 6.204590 0.241964
v 0.000000 6.204590 -0.241964
v 0.000000 6.171183 -0.480399
v 0.000000 6.116046 -0.711829
v 0.000000 6.039984 -0.932879
v 0.000000 5.944105 -1.140326
v 0.000000 5.829807 -1.331144
v 0.000000 5.698758 -1.502551
v 0.000000 5.552868 -1.652047
v 0.000000 5.394265 -1.777453
v 0.000000 5.225261 -1.876940
v -0.000000 5.048321 -1.949056
v -0.000000 4.866025 -1.992751
v 0.345875 6.215780 -0.000000
v 0.345875 6.204590 0.241964
v 0.345875 6.171183 0.480399
v 0.345875 6.116046 0.711829
v 0.345875 6.039984 0.932879
v 0.345875 5.944105 1.140326
v 0.345875 5.829807 1.331144
v 0.345875 5.698758 1.502551
v 0.345875 5.552868 1.652047
v 0.345875 5.394265 1.777453
v 0.345875 5.225261 1.876940
v 0.345875 5.048321 1.949056
v 0.345875 4.866025 1.992751
v 0.345875 4.866025 -1.992751
v 0.345875 5.048321 -1.949056
v 0.345875 5.225261 -1.876940
v 0.345875 5.394265 -1.777453
v 0.345875 5.552868 -1.652047
v 0.345875 5.698758 -1.502551
v 0.345875 5.829807 -1.331144
v 0.345875 5.944105 -1.140326
v 0.345875 6.039984 -0.932879
v 0.345875 6.116046 -0.711829
v 0.345875 6.171183 -0.480399
v 0.345875 6.204590 -0.241964
v -0.000000 4.681031 -2.007387
v 0.000000 4.681031 2.007387
v 0.000000 5.397656 -1.440760
v 0.000000 6.035110 -0.000000
v 0.000000 5.370104 1.462546
v 0.345875 5.382699 1.452587
v 0.345875 5.414720 -1.427268
v 0.345875 6.042017 -0.000000
v 0.345875 6.121150 -0.294315
v 0.345875 6.108530 0.247379
v 0.345875 4.971081 -1.778048
v 0.345875 4.891791 1.840742
v -0.000000 4.925616 -1.813997
v 0.000000 4.935665 1.806051
v 0.000000 6.108270 0.258287
v 0.000000 6.102950 -0.239507
v 0.000000 6.215780 -0.000000
v 0.345875 4.681031 1.003694
v 0.345875 5.360508 0.466440
v 0.345875 4.681031 -1.003694
v 0.345875 5.360508 -0.466440
v 0.000000 4.681031 -1.003694
v 0.000000 5.360508 -0.466440
v 0.000000 5.360508 0.466440
v 0.000000 4.681031 1.003694
v 0.345875 3.913657 1.003694
v 0.345875 3.913657 -1.003694
v -0.000000 3.913657 -1.003694
v 0.000000 3.913657 1.003694
vn -1.0000 -0.0000 -0.0000
vn 1.0000 -0.0000 -0.0000
vn -0.0000 -0.0000 -1.0000
vn -0.0000 -0.0000 1.0000
vn -0.0000 -1.0000 -0.0000
vn -0.0000 0.9989 -0.0462
vn -0.0000 0.9903 -0.1388
vn -0.0000 0.9728 -0.2318
vn -0.0000 0.9456 -0.3254
vn -0.0000 0.9077 -0.4195
vn -0.0000 0.8579 -0.5139
vn -0.0000 0.7944 -0.6074
vn -0.0000 0.7157 -0.6984
vn -0.0000 0.6202 -0.7844
vn -0.0000 0.5073 -0.8618
vn -0.0000 0.3774 -0.9260
vn -0.0000 0.2331 -0.9725
vn -0.0000 0.0789 -0.9969
vn -0.0000 0.9989 0.0462
vn -0.0000 0.9903 0.1388
vn -0.0000 0.9728 0.2318
vn -0.0000 0.9456 0.3254
vn -0.0000 0.9077 0.4195
vn -0.0000 0.8579 0.5139
vn -0.0000 0.7944 0.6074
vn -0.0000 0.7157 0.6984
vn -0.0000 0.6202 0.7844
vn -0.0000 0.5073 0.8618
vn -0.0000 0.3774 0.9260
vn -0.0000 0.2331 0.9725
vn -0.0000 0.0789 0.9969
vt 0.807937 0.014036
vt 0.807468 0.253863
vt 0.494971 0.252422
vt 0.495440 0.012594
vt 0.182474 0.250980
vt 0.182943 0.011153
vt 0.806998 0.493691
vt 0.494501 0.492250
vt 0.182004 0.490808
vt 0.806529 0.733519
vt 0.650515 0.612884
vt 0.494032 0.732077
vt 0.338018 0.611443
vt 0.176775 0.004805
vt 0.493102 0.004621
vt 0.493161 0.248478
vt 0.176834 0.248661
vt 0.809429 0.004438
vt 0.809488 0.248294
vt 0.493221 0.492334
vt 0.176894 0.492517
vt 0.809548 0.492150
vt 0.335087 0.614353
vt 0.176954 0.736373
vt 0.651414 0.614170
vt 0.493281 0.736190
vt 0.566809 0.844109
vt 0.640338 0.952028
vt 0.493333 0.952437
vt 0.493617 0.943673
vt 0.348391 0.943764
vt 0.421212 0.837921
vt 0.175892 0.252845
vt 0.175892 0.295986
vt 0.174041 0.295986
vt 0.174041 0.252845
vt 0.174041 0.471078
vt 0.174041 0.514218
vt 0.172191 0.514218
vt 0.172191 0.471078
vt 0.174041 0.427937
vt 0.172191 0.427937
vt 0.203222 0.769846
vt 0.186160 0.794727
vt 0.179267 0.765766
vt 0.174041 0.297250
vt 0.174041 0.384796
vt 0.172191 0.384796
vt 0.172191 0.297250
vt 0.174041 0.209704
vt 0.172191 0.209704
vt 0.175892 0.339127
vt 0.174041 0.339127
vt 0.175892 0.209704
vt 0.174041 0.209704
vt 0.175892 0.419260
vt 0.174041 0.419260
vt 0.174041 0.408776
vt 0.175892 0.408776
vt 0.174041 0.398351
vt 0.175892 0.398351
vt 0.174041 0.388137
vt 0.175892 0.388137
vt 0.174041 0.378281
vt 0.175892 0.378281
vt 0.174041 0.368929
vt 0.175892 0.368929
vt 0.174041 0.360216
vt 0.175892 0.360216
vt 0.174041 0.352270
vt 0.175892 0.352270
vt 0.174041 0.345205
vt 0.175892 0.345205
vt 0.174041 0.548274
vt 0.174041 0.517994
vt 0.174377 0.517994
vt 0.174377 0.548274
vt 0.174713 0.517994
vt 0.174713 0.548274
vt 0.175046 0.517994
vt 0.175046 0.548274
vt 0.175371 0.517994
vt 0.175371 0.548274
vt 0.174041 0.419260
vt 0.175892 0.419260
vt 0.175892 0.429649
vt 0.174041 0.429649
vt 0.175892 0.439792
vt 0.174041 0.439792
vt 0.175892 0.449540
vt 0.174041 0.449540
vt 0.175892 0.458753
vt 0.174041 0.458753
vt 0.175892 0.467296
vt 0.174041 0.467296
vt 0.175892 0.475043
vt 0.174041 0.475043
vt 0.175892 0.481883
vt 0.174041 0.481883
vt 0.175892 0.487714
vt 0.174041 0.487714
vt 0.175700 0.487714
vt 0.175700 0.517994
vt 0.175371 0.487714
vt 0.175035 0.517994
vt 0.175035 0.487714
vt 0.174699 0.517994
vt 0.174699 0.487714
vt 0.174366 0.517994
vt 0.174366 0.487714
vt 0.566436 0.838591
vt 0.638840 0.945104
vt 0.718220 0.852635
vt 0.809608 0.736006
vt 0.807308 0.765401
vt 0.795908 0.790891
vt 0.773479 0.782113
vt 0.316127 0.928633
vt 0.286456 0.910635
vt 0.269524 0.843026
vt 0.211566 0.768995
vt 0.181535 0.730636
vt 0.337783 0.731357
vt 0.346329 0.952199
vt 0.454354 0.963027
vt 0.417636 0.973004
vt 0.381165 0.964264
vt 0.419805 0.844194
vt 0.335117 0.736282
vt 0.721500 0.840806
vt 0.700904 0.912547
vt 0.671164 0.930270
vt 0.217111 0.842255
vt 0.201676 0.815774
vt 0.190503 0.788072
vt 0.456312 0.954102
vt 0.418790 0.964591
vt 0.382780 0.955809
vt 0.604406 0.956831
vt 0.568361 0.965281
vt 0.533804 0.955290
vt 0.750945 0.869501
vt 0.770516 0.844807
vt 0.232982 0.874867
vt 0.264407 0.847811
vt 0.283562 0.918840
vt 0.256546 0.898034
vt 0.749124 0.871086
vt 0.725572 0.894280
vt 0.703089 0.918597
vt 0.605507 0.964134
vt 0.569040 0.972916
vt 0.539715 0.964983
vt 0.531233 0.970330
vt 0.493562 0.971905
vt 0.455898 0.969983
vt 0.797336 0.790871
vt 0.775108 0.773165
vt 0.727628 0.892191
vt 0.259813 0.890034
vt 0.236585 0.867129
vt 0.313635 0.936984
vt 0.213215 0.849678
vt 0.197531 0.822834
vt 0.673024 0.936775
vt 0.784550 0.819012
vt 0.768880 0.845874
vt 0.531469 0.978246
vt 0.493340 0.980046
vt 0.183757 0.759554
vt 0.804194 0.762416
vt 0.650280 0.732798
vt 0.455211 0.978290
vt 0.651444 0.736098
vt 0.786055 0.818469
s 0
usemtl Material.002
f 1/1/1 4/2/1 5/3/1 2/4/1
f 2/4/1 5/3/1 6/5/1 3/6/1
f 4/2/1 7/7/1 8/8/1 5/3/1
f 5/3/1 8/8/1 9/9/1 6/5/1
f 7/7/1 73/10/1 100/11/1
f 8/8/1 10/12/1 99/13/1 9/9/1
f 12/14/2 13/15/2 14/16/2 11/17/2
f 13/15/2 15/18/2 16/19/2 14/16/2
f 11/17/2 14/16/2 18/20/2 17/21/2
f 14/16/2 16/19/2 19/22/2 18/20/2
f 17/21/2 97/23/2 20/24/2
f 18/20/2 19/22/2 98/25/2 21/26/2
f 21/26/2 92/27/2 68/28/2 79/29/2
f 10/12/1 75/30/1 38/31/1 94/32/1
f 6/33/3 9/34/3 19/35/3 16/36/3
f 4/37/4 1/38/4 12/39/4 11/40/4
f 7/41/4 4/37/4 11/40/4 17/42/4
f 20/24/2 83/43/2 58/44/2 59/45/2
f 2/46/5 3/47/5 15/48/5 13/49/5
f 1/50/5 2/46/5 13/49/5 12/51/5
f 9/34/3 72/52/3 22/53/3 19/35/3
f 3/54/3 6/33/3 16/36/3 15/55/3
f 73/47/4 7/41/4 17/42/4 20/48/4
f 88/56/6 47/57/6 71/58/6 35/59/6
f 35/59/7 71/58/7 70/60/7 36/61/7
f 36/61/8 70/60/8 69/62/8 37/63/8
f 37/63/9 69/62/9 68/64/9 38/65/9
f 38/65/10 68/64/10 67/66/10 39/67/10
f 39/67/11 67/66/11 66/68/11 40/69/11
f 40/69/12 66/68/12 65/70/12 41/71/12
f 41/71/13 65/70/13 64/72/13 42/73/13
f 42/73/14 64/72/14 63/53/14 43/52/14
f 43/74/15 63/75/15 62/76/15 44/77/15
f 44/77/16 62/76/16 61/78/16 45/79/16
f 45/79/17 61/78/17 60/80/17 46/81/17
f 46/81/18 60/80/18 22/82/18 72/83/18
f 47/84/19 88/85/19 34/86/19 48/87/19
f 48/87/20 34/86/20 33/88/20 49/89/20
f 49/89/21 33/88/21 32/90/21 50/91/21
f 50/91/22 32/90/22 31/92/22 51/93/22
f 51/93/23 31/92/23 30/94/23 52/95/23
f 52/95/24 30/94/24 29/96/24 53/97/24
f 53/97/25 29/96/25 28/98/25 54/99/25
f 54/99/26 28/98/26 27/100/26 55/101/26
f 55/102/27 27/103/27 26/82/27 56/104/27
f 56/104/28 26/82/28 25/105/28 57/106/28
f 57/106/29 25/105/29 24/107/29 58/108/29
f 58/108/30 24/107/30 23/109/30 59/110/30
f 59/110/31 23/109/31 73/75/31 20/101/31
f 10/12/1 95/111/1 31/112/1 75/30/1
f 68/28/2 92/27/2 78/113/2
f 22/114/2 60/115/2 61/116/2 82/117/2
f 38/31/1 39/118/1 40/119/1 74/120/1
f 84/121/1 72/122/1 93/123/1 74/120/1
f 51/124/2 79/29/2 81/125/2 49/126/2 50/127/2
f 21/26/2 90/128/2 89/129/2
f 31/112/1 76/130/1 29/131/1 30/132/1
f 74/120/1 43/133/1 44/134/1 45/135/1
f 38/31/1 75/30/1 87/136/1 36/137/1 37/138/1
f 75/30/1 31/112/1 32/139/1 33/140/1 86/141/1
f 27/142/1 76/130/1 26/143/1
f 55/144/2 77/145/2 53/146/2 54/147/2
f 78/113/2 64/148/2 65/149/2 66/150/2
f 79/29/2 68/28/2 69/151/2 70/152/2 80/153/2
f 79/29/2 51/124/2 90/128/2 21/26/2
f 33/140/1 34/154/1 88/155/1 86/141/1
f 36/137/1 87/136/1 88/155/1 35/156/1
f 24/157/1 76/130/1 85/158/1
f 29/131/1 76/130/1 27/142/1 28/159/1
f 74/120/1 40/119/1 41/160/1 42/161/1
f 45/135/1 84/121/1 74/120/1
f 53/146/2 77/145/2 51/124/2 52/162/2
f 58/44/2 77/145/2 56/163/2 57/164/2
f 66/150/2 67/165/2 68/28/2 78/113/2
f 78/113/2 61/116/2 62/166/2 63/167/2
f 70/152/2 71/168/2 47/169/2 80/153/2
f 80/153/2 47/169/2 79/29/2
f 47/169/2 81/125/2 79/29/2
f 82/117/2 61/116/2 78/113/2
f 58/44/2 83/43/2 77/145/2
f 84/121/1 45/135/1 46/170/1 72/122/1
f 85/158/1 73/10/1 23/171/1 24/157/1
f 86/141/1 88/155/1 75/30/1
f 10/12/1 96/172/1 95/111/1
f 49/126/2 81/125/2 47/169/2 48/173/2
f 88/155/1 87/136/1 75/30/1
f 89/129/2 77/145/2 83/43/2 20/24/2
f 77/145/2 90/128/2 51/124/2
f 77/145/2 89/129/2 90/128/2
f 78/113/2 92/27/2 91/174/2
f 91/174/2 92/27/2 21/26/2
f 91/174/2 22/114/2 82/117/2 78/113/2
f 74/120/1 94/32/1 38/31/1
f 94/32/1 93/123/1 10/12/1
f 94/32/1 74/120/1 93/123/1
f 95/111/1 76/130/1 31/112/1
f 76/130/1 95/111/1 96/172/1
f 76/130/1 96/172/1 73/10/1 85/158/1
f 21/26/2 97/23/2 17/21/2 18/20/2
f 21/26/2 98/25/2 22/114/2 91/174/2
f 20/24/2 97/23/2 21/26/2 89/129/2
f 22/114/2 98/25/2 19/22/2
f 9/9/1 99/13/1 72/122/1
f 10/12/1 8/8/1 7/7/1 100/11/1
f 72/122/1 99/13/1 10/12/1 93/123/1
f 100/11/1 73/10/1 96/172/1 10/12/1
f 26/143/1 76/130/1 24/157/1 25/175/1
f 43/133/1 74/120/1 42/161/1
f 63/167/2 64/148/2 78/113/2
f 56/163/2 77/145/2 55/144/2
